<svg id="Layer_1" data-name="Layer 1" xmlns="http://www.w3.org/2000/svg" xmlns:xlink="http://www.w3.org/1999/xlink" viewBox="0 0 541 174"><defs><style>.cls-1{fill:none;}.cls-2{clip-path:url(#clip-path);}.cls-3,.cls-5{fill:#192432;}.cls-4{fill:#dedede;}.cls-5{font-size:87px;font-family:SourceSansPro-Regular, Source Sans Pro;letter-spacing:0.54em;}.cls-6{letter-spacing:0.54em;}.cls-7{letter-spacing:0.54em;}.cls-8{letter-spacing:0.53em;}</style><clipPath id="clip-path" transform="translate(-35 -16)"><rect class="cls-1" x="28" y="49" width="558" height="160.12"/></clipPath></defs><g class="cls-2"><path class="cls-3" d="M0,0ZM0,0ZM0,0ZM0,0Z" transform="translate(-35 -16)"/><circle class="cls-3" cx="165" cy="112" r="61"/><circle class="cls-4" cx="165" cy="112" r="54"/><circle class="cls-3" cx="165" cy="87" r="10"/><rect class="cls-3" x="185" y="101" width="31" height="3.2" transform="translate(-49 18) rotate(-9)"/><circle class="cls-3" cx="166" cy="116" r="4"/><circle class="cls-3" cx="201" cy="91" r="1"/><circle class="cls-3" cx="195" cy="119" r="1"/><circle class="cls-3" cx="121" cy="113" r="1"/><circle class="cls-3" cx="156" cy="69" r="1"/><circle class="cls-3" cx="170" cy="141" r="1"/><circle class="cls-3" cx="159" cy="156" r="1"/><circle class="cls-3" cx="195" cy="142" r="5"/><circle class="cls-3" cx="136" cy="135" r="2"/><circle class="cls-3" cx="137" cy="97" r="2"/></g><text class="cls-5" transform="translate(0 42) scale(0.58)">P<tspan class="cls-6" x="92" y="0">O</tspan><tspan class="cls-7" x="190" y="0">WERED </tspan><tspan class="cls-8" x="726" y="0">B</tspan><tspan class="cls-7" x="818" y="0">Y</tspan></text></svg>