<?xml version="1.0" encoding="utf-8"?>
<!-- Generator: Adobe Illustrator 25.4.1, SVG Export Plug-In . SVG Version: 6.00 Build 0)  -->
<svg version="1.1" id="Layer_1" xmlns="http://www.w3.org/2000/svg" xmlns:xlink="http://www.w3.org/1999/xlink" x="0px" y="0px"
	 viewBox="0 0 614.7 278.3" style="enable-background:new 0 0 614.7 278.3;" xml:space="preserve">
<style type="text/css">
	.st0{clip-path:url(#SVGID_00000049195636258449356180000004209639508221686702_);}
	.st1{fill:#F0F0F0;}
	.st2{fill:#DEDEDE;}
	.st3{fill:#192432;}
</style>
<g>
	<g>
		<g>
			<defs>
				<rect id="SVGID_1_" x="31" y="72.3" width="558.3" height="160.1"/>
			</defs>
			<clipPath id="SVGID_00000087406973632070776280000017711162088251020708_">
				<use xlink:href="#SVGID_1_"  style="overflow:visible;"/>
			</clipPath>
			<g style="clip-path:url(#SVGID_00000087406973632070776280000017711162088251020708_);">
				<path class="st1" d="M73.1,208.4v-87.1H41.8V95.6h94.1v25.6h-31.4v87.1H73.1z M277.3,208.4V95.6h31.4v41.4h0.9l30.7-41.4h33.9
					l-35.7,46.1l42.1,66.6h-33.5l-26.5-45l-12,13.7v31.4C308.7,208.4,277.3,208.4,277.3,208.4z M395.7,208.4V95.6h76.6V120h-45.3
					v19.6H466v22.8h-38.9V184h47.4v24.3H395.7z M502.3,208.4V95.6h31.4v87.1h44.8v25.6H502.3z"/>
				<ellipse class="st2" cx="202.5" cy="152.3" rx="61.4" ry="61.4"/>
				<ellipse class="st3" cx="202.5" cy="152.3" rx="53.9" ry="53.9"/>
				<ellipse class="st2" cx="202.5" cy="127" rx="10" ry="10"/>
				
					<rect x="187.2" y="124.2" transform="matrix(0.9864 -0.1641 0.1641 0.9864 -17.9062 34.9391)" class="st2" width="30.5" height="3.2"/>
				<ellipse class="st2" cx="203.7" cy="155.7" rx="3.7" ry="3.7"/>
				<ellipse class="st2" cx="238.8" cy="130.8" rx="1.3" ry="1.3"/>
				<ellipse class="st2" cx="232.4" cy="158.7" rx="0.5" ry="0.5"/>
				<ellipse class="st2" cx="158.7" cy="152.9" rx="0.5" ry="0.5"/>
				<ellipse class="st2" cx="193.8" cy="108.5" rx="0.5" ry="0.5"/>
				<ellipse class="st2" cx="207.8" cy="180.9" rx="0.5" ry="0.5"/>
				<ellipse class="st2" cx="196.2" cy="195.9" rx="1.3" ry="1.3"/>
				<ellipse class="st2" cx="232.6" cy="182.1" rx="5" ry="5"/>
				<ellipse class="st2" cx="173.5" cy="174.7" rx="2.5" ry="2.5"/>
				<ellipse class="st2" cx="174.9" cy="137.1" rx="2.5" ry="2.5"/>
			</g>
		</g>
	</g>
</g>
<g>
	<path class="st1" d="M43.3,79V54.8h8.3c1.4,0,2.7,0.1,3.9,0.4c1.2,0.2,2.2,0.7,3.1,1.2c0.9,0.6,1.5,1.3,2,2.3
		c0.5,0.9,0.7,2.1,0.7,3.5c0,1.3-0.2,2.4-0.7,3.4c-0.5,1-1.2,1.8-2,2.4c-0.9,0.6-1.9,1.1-3.1,1.4c-1.2,0.3-2.5,0.5-3.9,0.5h-4.4V79
		H43.3z M47.1,67h4.1c2.1,0,3.7-0.4,4.7-1.2c1-0.8,1.5-2,1.5-3.5c0-1.6-0.5-2.8-1.6-3.5c-1-0.7-2.6-1-4.8-1h-4V67z"/>
	<path class="st1" d="M106.6,79.6c-1.7,0-3.2-0.3-4.6-0.9c-1.4-0.6-2.6-1.4-3.6-2.5c-1-1.1-1.8-2.4-2.3-4c-0.6-1.6-0.8-3.4-0.8-5.3
		c0-2,0.3-3.7,0.8-5.3c0.6-1.6,1.3-2.9,2.3-3.9c1-1.1,2.2-1.9,3.6-2.5c1.4-0.6,2.9-0.9,4.6-0.9c1.6,0,3.2,0.3,4.5,0.9
		c1.4,0.6,2.6,1.4,3.6,2.5c1,1.1,1.8,2.4,2.4,3.9c0.6,1.6,0.8,3.3,0.8,5.3c0,2-0.3,3.7-0.8,5.3c-0.6,1.6-1.3,2.9-2.4,4
		c-1,1.1-2.2,1.9-3.6,2.5C109.7,79.3,108.2,79.6,106.6,79.6z M106.6,76.3c2.2,0,4-0.8,5.3-2.5c1.3-1.7,2-4,2-6.9
		c0-2.9-0.7-5.2-2-6.8c-1.3-1.6-3.1-2.4-5.3-2.4c-2.2,0-4,0.8-5.3,2.4c-1.3,1.6-2,3.9-2,6.8c0,2.9,0.7,5.2,2,6.9
		C102.5,75.4,104.3,76.3,106.6,76.3z"/>
	<path class="st1" d="M156.1,79l-5.4-24.2h3.8l2.6,12.6c0.2,1.3,0.5,2.6,0.7,3.9c0.2,1.3,0.5,2.6,0.7,3.9h0.1
		c0.3-1.3,0.6-2.6,0.9-3.9c0.3-1.3,0.6-2.6,1-3.9l3.5-12.6h3.4l3.4,12.6c0.3,1.3,0.6,2.6,0.9,3.9c0.3,1.3,0.6,2.6,1,3.9h0.2
		c0.2-1.3,0.5-2.6,0.7-3.9c0.2-1.3,0.5-2.6,0.7-3.9l2.6-12.6h3.6L175.1,79h-4.5l-3.7-13.5c-0.2-1-0.5-1.9-0.7-2.8
		c-0.2-0.9-0.4-1.8-0.6-2.7h-0.2c-0.2,0.9-0.4,1.8-0.6,2.7c-0.2,0.9-0.4,1.9-0.7,2.8L160.5,79H156.1z"/>
	<path class="st1" d="M215.3,79V54.8h15.2v3.1h-11.3v7h9.6v2.9h-9.6v8.1h11.8V79H215.3z"/>
	<path class="st1" d="M267,79V54.8h8.4c1.3,0,2.6,0.1,3.7,0.3s2.1,0.6,2.9,1.2c0.8,0.6,1.5,1.3,1.9,2.2c0.5,0.9,0.7,2,0.7,3.3
		c0,1.8-0.5,3.3-1.5,4.5s-2.4,2-4,2.4l6.4,10.2h-4.2l-6-9.7h-4.5V79H267z M270.9,66.5h4.1c4,0,6-1.5,6-4.4c0-1.6-0.5-2.6-1.6-3.3
		c-1-0.6-2.5-0.9-4.5-0.9h-4V66.5z"/>
	<path class="st1" d="M321,79V54.8h15.2v3.1h-11.3v7h9.6v2.9h-9.6v8.1h11.8V79H321z"/>
	<path class="st1" d="M372.7,79V54.8h6.7c4,0,7.1,1,9.3,3s3.3,5,3.3,9c0,4-1.1,7-3.3,9.1c-2.2,2.1-5.2,3.1-9.1,3.1H372.7z M376.6,76
		h2.9c2.9,0,5-0.8,6.4-2.3c1.4-1.5,2.1-3.8,2.1-6.8c0-2.8-0.7-5-2.1-6.6c-1.4-1.6-3.5-2.3-6.4-2.3h-2.9V76z"/>
	<path class="st1" d="M467.1,79V54.8h7.9c1.3,0,2.6,0.1,3.7,0.3c1.1,0.2,2.1,0.6,2.9,1c0.8,0.5,1.4,1.1,1.9,1.8
		c0.5,0.8,0.7,1.7,0.7,2.8c0,1.2-0.4,2.2-1.1,3.2c-0.7,0.9-1.7,1.6-3.1,2v0.2c1.7,0.3,3.1,1,4.1,1.9c1,0.9,1.5,2.2,1.5,3.9
		c0,1.2-0.2,2.3-0.7,3.1c-0.5,0.9-1.2,1.6-2.1,2.2c-0.9,0.6-1.9,1-3.1,1.3c-1.2,0.3-2.5,0.4-4,0.4H467.1z M471,65h3.6
		c2.1,0,3.7-0.3,4.6-1c0.9-0.7,1.4-1.6,1.4-2.8c0-1.2-0.5-2.1-1.4-2.7c-1-0.5-2.4-0.8-4.3-0.8H471V65z M471,76.1h4.2
		c2,0,3.6-0.3,4.8-1c1.2-0.7,1.8-1.8,1.8-3.4c0-1.4-0.6-2.4-1.7-3.1c-1.1-0.7-2.8-1-4.9-1H471V76.1z"/>
	<path class="st1" d="M524.3,79v-9.1l-7.8-15h4.1l3.1,6.4c0.4,0.9,0.8,1.8,1.2,2.6c0.4,0.9,0.8,1.7,1.3,2.6h0.2
		c0.4-0.9,0.8-1.8,1.2-2.6c0.4-0.9,0.8-1.7,1.2-2.6l3.1-6.4h4l-7.8,15V79H524.3z"/>
</g>
</svg>
