<?xml version="1.0" encoding="utf-8"?>
<!-- Generator: Adobe Illustrator 26.1.0, SVG Export Plug-In . SVG Version: 6.00 Build 0)  -->
<svg version="1.1" id="Layer_1" xmlns="http://www.w3.org/2000/svg" xmlns:xlink="http://www.w3.org/1999/xlink" x="0px" y="0px"
	 viewBox="0 0 1374 736" style="enable-background:new 0 0 1374 736;" xml:space="preserve">
<style type="text/css">
	.st0{fill:#192432;}
	.st1{font-family:'SourceSansPro-Black';}
	.st2{font-size:447px;}
	.st3{letter-spacing:-11;}
</style>
<g>
	<g>
		<polygon class="st0" points="1329.4,292 1329.4,357 1136.4,357 1136.4,71 1216.4,71 1216.4,292 		"/>
		<polygon class="st0" points="1095.4,295 1095.4,357 895.4,357 895.4,71 1090.4,71 1090.4,133 975.4,133 975.4,182 1074.4,182 
			1074.4,240 975.4,240 975.4,295 		"/>
		<polygon class="st0" points="869.8,357 784.4,357 716.9,242.6 686.4,277.3 686.4,357 606.4,357 606.4,71 686.4,71 686.4,176 
			688.5,176 766.9,71 853.4,71 762.6,188 		"/>
		<polygon class="st0" points="273.4,71 273.4,136 194.4,136 194.4,357 114.4,357 114.4,136 34.4,136 34.4,71 		"/>
		<g>
			<g>
				<path class="st0" d="M503.2,229.1L503.2,229.1L503.2,229.1L503.2,229.1L503.2,229.1z M503.2,229.1L503.2,229.1L503.2,229.1
					L503.2,229.1L503.2,229.1z M409.8,106c0.2,0.3,0.4,0.6,0.5,0.9C410.2,106.6,410,106.3,409.8,106z M403.4,108L403.4,108
					L403.4,108L403.4,108z M403.4,108.2L403.4,108.2L403.4,108.2L403.4,108.2z M322.9,211.5L322.9,211.5L322.9,211.5L322.9,211.5z
					 M322.7,211.5L322.7,211.5L322.7,211.5L322.7,211.5z"/>
				<path class="st0" d="M411.4,108.2L411.4,108.2v0.5c-0.8,0.1-0.8,0.3-0.9,0.4l0,0l0,0c0,0.2-0.1,0.4-0.2,0.6
					c-0.2,0.4-0.5,0.8-0.8,1.1c-0.1,0.1-0.1,0.1-0.2,0.2c-0.1,0.1-0.2,0.2-0.3,0.2c-0.1,0.1-0.2,0.1-0.3,0.2
					c-0.2,0.1-0.4,0.2-0.6,0.3c-0.3,0.1-0.7,0.1-1,0.1l0,0c-0.3,0-0.6,0-0.9-0.1c-1.7-0.5-2.7-1.9-2.8-3.5l0,0l0,0v-0.1V108v-0.1
					v-0.2c0.1-0.1,0.1-0.3,0.2-0.4c0.4-1.6,1.9-2.7,3.5-2.7c0.3,0,0.9,0.4,0.9,0.4l0,0h0.1l0,0l0,0l0,0h0.1c0.1-0.3,0.1-0.2,0.2-0.2
					s0.2,0.1,0.3,0.1c0.1,0,0.2,0.1,0.2,0.1c0.2,0.1,0.5,0.3,0.7,0.5c0.1,0.1,0.1,0.2,0.2,0.3c0.2,0.3,0.4,0.6,0.5,0.9
					c0.1,0.2,0.2,0.4,0.1,0.7v0.3C410.5,108,411.4,108.2,411.4,108.2z"/>
				<path class="st0" d="M326.6,214.5c0,2.1-1.7,3.6-3.6,3.6c-2.1,0-3.6-1.7-3.6-3.6v-0.1l0,0l0,0l0,0l0,0l0,0l0,0
					c0.1-2,1.7-3.4,3.6-3.4l0,0l0,0h0.1l0,0l0,0h0.1c0.1,0,0.2,0,0.2,0c0.2,0,0.3,0.1,0.4,0.1s0.2,0.1,0.3,0.1c0.1,0,0.1,0,0.2,0.1
					c0.1,0,0.2,0.1,0.3,0.1c0.1,0.1,0.3,0.2,0.4,0.2c0,0,0.1,0,0.1,0.1c0.1,0,0.1,0.1,0.2,0.1c0.1,0,0.1,0.1,0.2,0.2l0.1,0.1
					c0.1,0.1,0.2,0.2,0.2,0.3c0.1,0.1,0.1,0.2,0.2,0.2c0.1,0.1,0.2,0.3,0.2,0.4c0,0.1,0.1,0.2,0.1,0.3c0,0.2,0.1,0.3,0.1,0.4
					s0,0.2,0,0.3l0,0C326.6,214.3,326.6,214.4,326.6,214.5z"/>
				<path class="st0" d="M428,66.1c-39.4,0-76.5,15.4-104.3,43.2s-43.2,64.9-43.2,104.3c0,81.3,66.2,147.5,147.5,147.5
					c39.4,0,76.5-15.4,104.3-43.2c13.9-13.9,24.7-30.1,32-47.8c7.3-17.7,11.2-36.8,11.2-56.5C575.5,132.3,509.4,66.1,428,66.1z
					 M427.5,343.1c-71.5-0.3-129.3-58.6-129-130.1S357,83.7,428.6,84c71.5,0.3,129.3,58.6,129,130.1S499,343.4,427.5,343.1z"/>
			</g>
			<path class="st0" d="M503.2,229.1L503.2,229.1L503.2,229.1L503.2,229.1L503.2,229.1z M503.2,229.1L503.2,229.1L503.2,229.1
				L503.2,229.1L503.2,229.1z M409.8,106c0.2,0.3,0.4,0.6,0.5,0.9C410.2,106.6,410,106.3,409.8,106z M403.4,108L403.4,108L403.4,108
				L403.4,108z M403.4,108.2L403.4,108.2L403.4,108.2L403.4,108.2z M322.9,211.5L322.9,211.5L322.9,211.5L322.9,211.5z M322.7,211.5
				L322.7,211.5L322.7,211.5L322.7,211.5z"/>
			<g>
				<path class="st0" d="M451.6,149.2c0.2,1.1,0.3,2.3,0.3,3.5c0,13.3-10.7,24-24,24c-11.8,0-21.6-8.5-23.6-19.6l-12,2l-1-6.2
					l12.7-2.1c1-12.4,11.3-22.1,23.9-22.1c9.9,0,18.3,5.9,22,14.4l13.6-2.3l1,6.2L451.6,149.2z"/>
			</g>
			<g>
				<circle class="st0" cx="430.8" cy="221.8" r="9.1"/>
			</g>
			<g>
				<path class="st0" d="M518.2,161.7c0,1.7-1.3,3-2.9,3c-1.7,0-3-1.3-3-3s1.3-2.9,3-2.9C516.9,158.8,518.2,160.1,518.2,161.7z"/>
			</g>
			<path class="st0" d="M323,218.1c-2.1,0-3.6-1.7-3.6-3.6v-0.1l0,0l0,0l0,0l0,0l0,0l0,0l0,0c0.1-2,1.7-3.4,3.6-3.4l0,0h0.1l0,0l0,0
				l0,0h0.1c0.1,0,0.2,0,0.2,0c0.2,0,0.3,0.1,0.4,0.1s0.2,0.1,0.3,0.1c0.1,0,0.1,0,0.2,0.1c0.1,0,0.2,0.1,0.3,0.1
				c0.1,0.1,0.3,0.2,0.4,0.2c0,0,0.1,0,0.1,0.1c0.1,0,0.1,0.1,0.2,0.1c0.1,0,0.1,0.1,0.2,0.2l0.1,0.1c0.1,0.1,0.2,0.2,0.2,0.3
				c0.1,0.1,0.1,0.2,0.2,0.2c0.1,0.1,0.2,0.3,0.2,0.4s0.1,0.2,0.1,0.3c0,0.2,0.1,0.3,0.1,0.4c0,0.1,0,0.2,0,0.3l0,0
				c0,0.1,0,0.3,0,0.4C326.6,216.6,324.9,218.1,323,218.1z M499.7,225.4c2.1,0,3.7,3.6,3.7,3.6v0.1l0,0l0,0v0.1l0,0l0,0
				c-0.2,2-1.8,3.4-3.7,2.8h-0.4c-0.1,0.6-0.2,0.6-0.4,0.5c-0.1,0-0.3-0.5-0.3-0.5h-0.1c0,0-0.1,0.4-0.2,1l0,0h-0.1h-0.1
				c-0.1-0.7-0.1-0.8-0.2-0.8s-0.1-0.1-0.2-0.1l-0.1-0.1l-0.1-0.1c-0.1-0.1-0.3-0.2-0.4-0.3s-0.1-0.2-0.2-0.3s-0.1-0.2-0.2-0.2
				c0,0,0-0.1-0.1-0.1c0-0.1-0.1-0.1-0.1-0.2l0,0c0-0.1-0.1-0.2-0.1-0.3s0-0.1-0.1-0.2c0-0.1-0.1-0.2,0.1-0.2V230v-0.1v-0.2v-0.5
				C496.1,226.8,497.8,225.4,499.7,225.4z M403.4,108.4L403.4,108.4L403.4,108.4L403.4,108.4L403.4,108.4L403.4,108.4v-0.2
				c0-0.1,0-0.1,0-0.2c0-0.1,0-0.3,0.1-0.4c0.4-1.6,1.9-2.7,3.5-2.7c0.3,0,0.6,0,0.9,0.1l0,0h0.1l0,0h0.1c0.1,0,0.1,0.1,0.2,0.1
				s0.2,0.1,0.3,0.1s0.2,0.1,0.2,0.1c0.2,0.1,0.5,0.3,0.7,0.5c0.1,0.1,0.1,0.2,0.2,0.3c0.2,0.3,0.4,0.6,0.5,0.9
				c0.1,0.2,0.2,0.4,0.2,0.7c0,0.1,0,0.2,0,0.3c0,0.1,0,0.2,0,0.3l0,0c0,0.1,0,0.3,0,0.4s0,0.3-0.1,0.4l0,0l0,0
				c0,0.2-0.1,0.4-0.2,0.6c-0.2,0.4-0.5,0.8-0.8,1.1c-0.1,0.1-0.1,0.1-0.2,0.2c-0.1,0.1-0.2,0.2-0.3,0.2c-0.1,0.1-0.2,0.1-0.3,0.2
				c-0.2,0.1-0.4,0.2-0.6,0.3c-0.3,0.1-0.7,0.1-1,0.1l0,0c-0.3,0-0.6,0-0.9-0.1C404.4,111.4,403.4,110,403.4,108.4L403.4,108.4z
				 M358.3,273.4c-3.4,0-6.1-2.7-6.1-6.1s2.7-6.1,6.1-6.1s6.1,2.7,6.1,6.1C364.4,270.7,361.5,273.4,358.3,273.4z M361.7,182.8
				c-3.4,0-6.1-2.7-6.1-6.1c0-3.4,2.7-6.1,6.1-6.1s6.1,2.7,6.1,6.1C367.8,180.1,364.8,182.8,361.7,182.8z M412.9,321.2
				c-1.7,0-3-1.3-3-3c0-1.7,1.3-2.9,3-2.9s3,1.3,3,2.9C415.8,319.9,414.4,321.2,412.9,321.2z M421.7,221.8c0-5,4-9.1,9.1-9.1
				c5,0,9.1,4,9.1,9.1s-4,9.1-9.1,9.1C425.7,230.8,421.7,226.8,421.7,221.8z M440.7,286c-2.1,0-3.6-1.7-3.6-3.6
				c0-2.1,1.7-3.6,3.6-3.6c2.1,0,3.6,1.7,3.6,3.6C444.3,284.6,442.6,286,440.7,286z M451.8,152.7c0,13.3-10.7,24-24,24
				c-11.8,0-21.6-8.5-23.6-19.6l-12,2l-1-6.2l12.7-2.1c1-12.4,11.3-22.1,23.9-22.1c9.9,0,18.3,5.9,22,14.4l13.6-2.3l1,6.2l-12.9,2.2
				C451.8,150.3,451.8,151.5,451.8,152.7z M500.1,297c-6.7,0-12-5.5-12-12s5.5-12,12-12s12,5.5,12,12
				C512.1,291.7,506.8,297,500.1,297z M515.3,164.7c-1.7,0-3-1.3-3-3s1.3-2.9,3-2.9s2.9,1.3,2.9,2.9
				C518.2,163.4,516.9,164.7,515.3,164.7z"/>
			<path class="st0" d="M503.2,229.1L503.2,229.1L503.2,229.1L503.2,229.1L503.2,229.1L503.2,229.1L503.2,229.1z"/>
			<path class="st0" d="M322.7,211.5L322.7,211.5L322.7,211.5L322.7,211.5z M322.9,211.5L322.9,211.5L322.9,211.5L322.9,211.5z"/>
			<path class="st0" d="M403.4,108.2L403.4,108.2L403.4,108.2L403.4,108.2z M403.4,108L403.4,108L403.4,108L403.4,108z"/>
			<path class="st0" d="M403.4,108L403.4,108C403.4,108.1,403.4,108.1,403.4,108L403.4,108z"/>
			<path class="st0" d="M403.4,108.2L403.4,108.2L403.4,108.2L403.4,108.2z"/>
			<path class="st0" d="M410.3,106.9c-0.1-0.3-0.3-0.6-0.5-0.9C410,106.3,410.2,106.6,410.3,106.9z"/>
			<path class="st0" d="M444.3,282.4c0,2.1-1.7,3.6-3.6,3.6c-2.1,0-3.6-1.7-3.6-3.6c0-2.1,1.7-3.6,3.6-3.6
				C442.8,278.9,444.3,280.5,444.3,282.4z"/>
			<g>
				<path class="st0" d="M415.8,318.3c0,1.7-1.5,3-3,3c-1.7,0-3-1.3-3-3c0-1.7,1.3-2.9,3-2.9C414.6,315.3,415.8,316.6,415.8,318.3z"
					/>
			</g>
			<g>
				<ellipse class="st0" cx="500.1" cy="285" rx="12" ry="12"/>
			</g>
			<g>
				<circle class="st0" cx="358.3" cy="267.3" r="6.1"/>
			</g>
			<g>
				<path class="st0" d="M367.8,176.7c0,3.4-3,6.1-6.1,6.1c-3.4,0-6.1-2.7-6.1-6.1c0-3.4,2.7-6.1,6.1-6.1S367.8,173.3,367.8,176.7z"
					/>
			</g>
			<path class="st0" d="M322.7,211.5L322.7,211.5L322.7,211.5L322.7,211.5z"/>
			<path class="st0" d="M503.4,229.1h-0.2l0,0l0,0c-0.1,2.1-1.7,3.4-3.6,2.9h-0.4c-0.1,0.5-0.2,0.5-0.4,0.4c-0.1,0-0.3-0.4-0.3-0.4
				h-0.1c0,0-0.1,0.3-0.2,1l0,0h-0.1H498c-0.1-0.8-0.1-0.9-0.2-0.9s-0.1-0.1-0.2-0.1l-0.1-0.1l-0.1-0.1c-0.1-0.1-0.3-0.2-0.4-0.3
				s-0.1-0.2-0.2-0.3s-0.1-0.2-0.2-0.2c0,0,0-0.1-0.1-0.1c0-0.1-0.1-0.1-0.1-0.2l0,0c0-0.1-0.1-0.2-0.1-0.3s0-0.1-0.1-0.2
				c0-0.1,0.2-0.2,0.2-0.2v-0.1v-0.1v-0.2v-0.5c-0.3-2.1,1.4-3.6,3.3-3.6C501.8,225.5,503.3,227.2,503.4,229.1L503.4,229.1
				L503.4,229.1L503.4,229.1L503.4,229.1z"/>
		</g>
	</g>
	<text transform="matrix(1 0 0 1 178.79 689.6587)"><tspan x="0" y="0" class="st0 st1 st2">TA</tspan><tspan x="513.2" y="0" class="st0 st1 st2 st3">LK</tspan></text>
</g>
</svg>
