<?xml version="1.0" encoding="utf-8"?>
<!-- Generator: Adobe Illustrator 26.1.0, SVG Export Plug-In . SVG Version: 6.00 Build 0)  -->
<svg version="1.1" id="Layer_1" xmlns="http://www.w3.org/2000/svg" xmlns:xlink="http://www.w3.org/1999/xlink" x="0px" y="0px"
	 viewBox="0 0 2462 414" style="enable-background:new 0 0 2462 414;" xml:space="preserve">
<style type="text/css">
	.st0{fill:#192432;}
	.st1{font-family:'SourceSansPro-Black';}
	.st2{font-size:447px;}
	.st3{letter-spacing:-11;}
</style>
<g>
	<polygon class="st0" points="1342,292 1342,357 1149,357 1149,71 1229,71 1229,292 	"/>
	<polygon class="st0" points="1108,295 1108,357 908,357 908,71 1103,71 1103,133 988,133 988,182 1087,182 1087,240 988,240 
		988,295 	"/>
	<polygon class="st0" points="882.4,357 797,357 729.5,242.6 699,277.3 699,357 619,357 619,71 699,71 699,176 701.1,176 779.5,71 
		866,71 775.2,188 	"/>
	<polygon class="st0" points="286,71 286,136 207,136 207,357 127,357 127,136 47,136 47,71 	"/>
	<g>
		<g>
			<path class="st0" d="M515.8,229.1L515.8,229.1L515.8,229.1L515.8,229.1L515.8,229.1z M515.8,229.1L515.8,229.1L515.8,229.1
				L515.8,229.1L515.8,229.1z M422.4,106c0.2,0.3,0.4,0.6,0.5,0.9C422.8,106.6,422.6,106.3,422.4,106z M416,108L416,108L416,108
				L416,108z M416,108.2L416,108.2L416,108.2L416,108.2z M335.5,211.5L335.5,211.5L335.5,211.5L335.5,211.5z M335.3,211.5
				L335.3,211.5L335.3,211.5L335.3,211.5z"/>
			<path class="st0" d="M424,108.2L424,108.2v0.5c-0.8,0.1-0.8,0.3-0.9,0.4l0,0l0,0c0,0.2-0.1,0.4-0.2,0.6c-0.2,0.4-0.5,0.8-0.8,1.1
				c-0.1,0.1-0.1,0.1-0.2,0.2c-0.1,0.1-0.2,0.2-0.3,0.2c-0.1,0.1-0.2,0.1-0.3,0.2c-0.2,0.1-0.4,0.2-0.6,0.3c-0.3,0.1-0.7,0.1-1,0.1
				l0,0c-0.3,0-0.6,0-0.9-0.1c-1.7-0.5-2.7-1.9-2.8-3.5l0,0l0,0v-0.1V108v-0.1v-0.2c0.1-0.1,0.1-0.3,0.2-0.4
				c0.4-1.6,1.9-2.7,3.5-2.7c0.3,0,0.9,0.4,0.9,0.4l0,0h0.1l0,0l0,0l0,0h0.1c0.1-0.3,0.1-0.2,0.2-0.2s0.2,0.1,0.3,0.1
				c0.1,0,0.2,0.1,0.2,0.1c0.2,0.1,0.5,0.3,0.7,0.5c0.1,0.1,0.1,0.2,0.2,0.3c0.2,0.3,0.4,0.6,0.5,0.9c0.1,0.2,0.2,0.4,0.1,0.7v0.3
				C423.1,108,424,108.2,424,108.2z"/>
			<path class="st0" d="M339.2,214.5c0,2.1-1.7,3.6-3.6,3.6c-2.1,0-3.6-1.7-3.6-3.6v-0.1l0,0l0,0l0,0l0,0l0,0l0,0
				c0.1-2,1.7-3.4,3.6-3.4l0,0l0,0h0.1l0,0l0,0h0.1c0.1,0,0.2,0,0.2,0c0.2,0,0.3,0.1,0.4,0.1s0.2,0.1,0.3,0.1c0.1,0,0.1,0,0.2,0.1
				c0.1,0,0.2,0.1,0.3,0.1c0.1,0.1,0.3,0.2,0.4,0.2c0,0,0.1,0,0.1,0.1c0.1,0,0.1,0.1,0.2,0.1c0.1,0,0.1,0.1,0.2,0.2l0.1,0.1
				c0.1,0.1,0.2,0.2,0.2,0.3c0.1,0.1,0.1,0.2,0.2,0.2c0.1,0.1,0.2,0.3,0.2,0.4c0,0.1,0.1,0.2,0.1,0.3c0,0.2,0.1,0.3,0.1,0.4
				s0,0.2,0,0.3l0,0C339.2,214.3,339.2,214.4,339.2,214.5z"/>
			<path class="st0" d="M440.6,66.1c-39.4,0-76.5,15.4-104.3,43.2s-43.2,64.9-43.2,104.3c0,81.3,66.2,147.5,147.5,147.5
				c39.4,0,76.5-15.4,104.3-43.2c13.9-13.9,24.7-30.1,32-47.8c7.3-17.7,11.2-36.8,11.2-56.5C588.1,132.3,522,66.1,440.6,66.1z
				 M440.1,343.1c-71.5-0.3-129.3-58.6-129-130.1S369.6,83.7,441.2,84c71.5,0.3,129.3,58.6,129,130.1S511.6,343.4,440.1,343.1z"/>
		</g>
		<path class="st0" d="M515.8,229.1L515.8,229.1L515.8,229.1L515.8,229.1L515.8,229.1z M515.8,229.1L515.8,229.1L515.8,229.1
			L515.8,229.1L515.8,229.1z M422.4,106c0.2,0.3,0.4,0.6,0.5,0.9C422.8,106.6,422.6,106.3,422.4,106z M416,108L416,108L416,108
			L416,108z M416,108.2L416,108.2L416,108.2L416,108.2z M335.5,211.5L335.5,211.5L335.5,211.5L335.5,211.5z M335.3,211.5
			L335.3,211.5L335.3,211.5L335.3,211.5z"/>
		<g>
			<path class="st0" d="M464.2,149.2c0.2,1.1,0.3,2.3,0.3,3.5c0,13.3-10.7,24-24,24c-11.8,0-21.6-8.5-23.6-19.6l-12,2l-1-6.2
				l12.7-2.1c1-12.4,11.3-22.1,23.9-22.1c9.9,0,18.3,5.9,22,14.4l13.6-2.3l1,6.2L464.2,149.2z"/>
		</g>
		<g>
			<circle class="st0" cx="443.4" cy="221.8" r="9.1"/>
		</g>
		<g>
			<path class="st0" d="M530.8,161.7c0,1.7-1.3,3-2.9,3c-1.7,0-3-1.3-3-3s1.3-2.9,3-2.9C529.5,158.8,530.8,160.1,530.8,161.7z"/>
		</g>
		<path class="st0" d="M335.6,218.1c-2.1,0-3.6-1.7-3.6-3.6v-0.1l0,0l0,0l0,0l0,0l0,0l0,0l0,0c0.1-2,1.7-3.4,3.6-3.4l0,0h0.1l0,0
			l0,0l0,0h0.1c0.1,0,0.2,0,0.2,0c0.2,0,0.3,0.1,0.4,0.1s0.2,0.1,0.3,0.1c0.1,0,0.1,0,0.2,0.1c0.1,0,0.2,0.1,0.3,0.1
			c0.1,0.1,0.3,0.2,0.4,0.2c0,0,0.1,0,0.1,0.1c0.1,0,0.1,0.1,0.2,0.1c0.1,0,0.1,0.1,0.2,0.2l0.1,0.1c0.1,0.1,0.2,0.2,0.2,0.3
			c0.1,0.1,0.1,0.2,0.2,0.2c0.1,0.1,0.2,0.3,0.2,0.4s0.1,0.2,0.1,0.3c0,0.2,0.1,0.3,0.1,0.4c0,0.1,0,0.2,0,0.3l0,0
			c0,0.1,0,0.3,0,0.4C339.2,216.6,337.5,218.1,335.6,218.1z M512.3,225.4c2.1,0,3.7,3.6,3.7,3.6v0.1l0,0l0,0v0.1l0,0l0,0
			c-0.2,2-1.8,3.4-3.7,2.8h-0.4c-0.1,0.6-0.2,0.6-0.4,0.5c-0.1,0-0.3-0.5-0.3-0.5h-0.1c0,0-0.1,0.4-0.2,1l0,0h-0.1h-0.1
			c-0.1-0.7-0.1-0.8-0.2-0.8s-0.1-0.1-0.2-0.1l-0.1-0.1l-0.1-0.1c-0.1-0.1-0.3-0.2-0.4-0.3s-0.1-0.2-0.2-0.3s-0.1-0.2-0.2-0.2
			c0,0,0-0.1-0.1-0.1c0-0.1-0.1-0.1-0.1-0.2l0,0c0-0.1-0.1-0.2-0.1-0.3s0-0.1-0.1-0.2c0-0.1-0.1-0.2,0.1-0.2V230v-0.1v-0.2v-0.5
			C508.7,226.8,510.4,225.4,512.3,225.4z M416,108.4L416,108.4L416,108.4L416,108.4L416,108.4L416,108.4v-0.2c0-0.1,0-0.1,0-0.2
			c0-0.1,0-0.3,0.1-0.4c0.4-1.6,1.9-2.7,3.5-2.7c0.3,0,0.6,0,0.9,0.1l0,0h0.1l0,0h0.1c0.1,0,0.1,0.1,0.2,0.1s0.2,0.1,0.3,0.1
			s0.2,0.1,0.2,0.1c0.2,0.1,0.5,0.3,0.7,0.5c0.1,0.1,0.1,0.2,0.2,0.3c0.2,0.3,0.4,0.6,0.5,0.9c0.1,0.2,0.2,0.4,0.2,0.7
			c0,0.1,0,0.2,0,0.3c0,0.1,0,0.2,0,0.3l0,0c0,0.1,0,0.3,0,0.4s0,0.3-0.1,0.4l0,0l0,0c0,0.2-0.1,0.4-0.2,0.6
			c-0.2,0.4-0.5,0.8-0.8,1.1c-0.1,0.1-0.1,0.1-0.2,0.2c-0.1,0.1-0.2,0.2-0.3,0.2c-0.1,0.1-0.2,0.1-0.3,0.2c-0.2,0.1-0.4,0.2-0.6,0.3
			c-0.3,0.1-0.7,0.1-1,0.1l0,0c-0.3,0-0.6,0-0.9-0.1C417,111.4,416,110,416,108.4L416,108.4z M370.9,273.4c-3.4,0-6.1-2.7-6.1-6.1
			s2.7-6.1,6.1-6.1s6.1,2.7,6.1,6.1C377,270.7,374.1,273.4,370.9,273.4z M374.3,182.8c-3.4,0-6.1-2.7-6.1-6.1c0-3.4,2.7-6.1,6.1-6.1
			s6.1,2.7,6.1,6.1C380.4,180.1,377.4,182.8,374.3,182.8z M425.5,321.2c-1.7,0-3-1.3-3-3c0-1.7,1.3-2.9,3-2.9s3,1.3,3,2.9
			C428.4,319.9,427,321.2,425.5,321.2z M434.3,221.8c0-5,4-9.1,9.1-9.1c5,0,9.1,4,9.1,9.1s-4,9.1-9.1,9.1
			C438.3,230.8,434.3,226.8,434.3,221.8z M453.3,286c-2.1,0-3.6-1.7-3.6-3.6c0-2.1,1.7-3.6,3.6-3.6c2.1,0,3.6,1.7,3.6,3.6
			C456.9,284.6,455.2,286,453.3,286z M464.4,152.7c0,13.3-10.7,24-24,24c-11.8,0-21.6-8.5-23.6-19.6l-12,2l-1-6.2l12.7-2.1
			c1-12.4,11.3-22.1,23.9-22.1c9.9,0,18.3,5.9,22,14.4l13.6-2.3l1,6.2l-12.9,2.2C464.4,150.3,464.4,151.5,464.4,152.7z M512.7,297
			c-6.7,0-12-5.5-12-12s5.5-12,12-12s12,5.5,12,12C524.7,291.7,519.4,297,512.7,297z M527.9,164.7c-1.7,0-3-1.3-3-3s1.3-2.9,3-2.9
			s2.9,1.3,2.9,2.9C530.8,163.4,529.5,164.7,527.9,164.7z"/>
		<path class="st0" d="M515.8,229.1L515.8,229.1L515.8,229.1L515.8,229.1L515.8,229.1L515.8,229.1L515.8,229.1z"/>
		<path class="st0" d="M335.3,211.5L335.3,211.5L335.3,211.5L335.3,211.5z M335.5,211.5L335.5,211.5L335.5,211.5L335.5,211.5z"/>
		<path class="st0" d="M416,108.2L416,108.2L416,108.2L416,108.2z M416,108L416,108L416,108L416,108z"/>
		<path class="st0" d="M416,108L416,108C416,108.1,416,108.1,416,108L416,108z"/>
		<path class="st0" d="M416,108.2L416,108.2L416,108.2L416,108.2z"/>
		<path class="st0" d="M422.9,106.9c-0.1-0.3-0.3-0.6-0.5-0.9C422.6,106.3,422.8,106.6,422.9,106.9z"/>
		<path class="st0" d="M456.9,282.4c0,2.1-1.7,3.6-3.6,3.6c-2.1,0-3.6-1.7-3.6-3.6c0-2.1,1.7-3.6,3.6-3.6
			C455.4,278.9,456.9,280.5,456.9,282.4z"/>
		<g>
			<path class="st0" d="M428.4,318.3c0,1.7-1.5,3-3,3c-1.7,0-3-1.3-3-3c0-1.7,1.3-2.9,3-2.9C427.2,315.3,428.4,316.6,428.4,318.3z"
				/>
		</g>
		<g>
			<ellipse class="st0" cx="512.7" cy="285" rx="12" ry="12"/>
		</g>
		<g>
			<circle class="st0" cx="370.9" cy="267.3" r="6.1"/>
		</g>
		<g>
			<path class="st0" d="M380.4,176.7c0,3.4-3,6.1-6.1,6.1c-3.4,0-6.1-2.7-6.1-6.1c0-3.4,2.7-6.1,6.1-6.1S380.4,173.3,380.4,176.7z"
				/>
		</g>
		<path class="st0" d="M335.3,211.5L335.3,211.5L335.3,211.5L335.3,211.5z"/>
		<path class="st0" d="M516,229.1h-0.2l0,0l0,0c-0.1,2.1-1.7,3.4-3.6,2.9h-0.4c-0.1,0.5-0.2,0.5-0.4,0.4c-0.1,0-0.3-0.4-0.3-0.4H511
			c0,0-0.1,0.3-0.2,1l0,0h-0.1h-0.1c-0.1-0.8-0.1-0.9-0.2-0.9s-0.1-0.1-0.2-0.1l-0.1-0.1l-0.1-0.1c-0.1-0.1-0.3-0.2-0.4-0.3
			s-0.1-0.2-0.2-0.3s-0.1-0.2-0.2-0.2c0,0,0-0.1-0.1-0.1c0-0.1-0.1-0.1-0.1-0.2l0,0c0-0.1-0.1-0.2-0.1-0.3s0-0.1-0.1-0.2
			c0-0.1,0.2-0.2,0.2-0.2v-0.1v-0.1v-0.2v-0.5c-0.3-2.1,1.4-3.6,3.3-3.6C514.4,225.5,515.9,227.2,516,229.1L516,229.1L516,229.1
			L516,229.1L516,229.1z"/>
	</g>
	<text transform="matrix(1 0 0 1 1408.1758 356.6587)"><tspan x="0" y="0" class="st0 st1 st2">TA</tspan><tspan x="513.2" y="0" class="st0 st1 st2 st3">LK</tspan></text>
</g>
</svg>
