<?xml version="1.0" encoding="utf-8"?>
<!-- Generator: Adobe Illustrator 26.1.0, SVG Export Plug-In . SVG Version: 6.00 Build 0)  -->
<svg version="1.1" id="Layer_1" xmlns="http://www.w3.org/2000/svg" xmlns:xlink="http://www.w3.org/1999/xlink" x="0px" y="0px"
	 viewBox="0 0 1370 730" style="enable-background:new 0 0 1370 730;" xml:space="preserve">
<style type="text/css">
	.st0{fill:#F0F0F0;}
	.st1{fill:#DEDEDE;}
	.st2{fill:#192432;}
	.st3{fill:#FFFFFF;}
	.st4{font-family:'SourceSansPro-Black';}
	.st5{font-size:447px;}
	.st6{letter-spacing:-10;}
</style>
<g>
	<polygon class="st0" points="1334.9,274.4 1334.9,339.3 1141.8,339.3 1141.8,53.7 1221.3,53.7 1221.3,274.4 	"/>
	<polygon class="st0" points="1093.4,277.6 1093.4,339.3 893.8,339.3 893.8,53.7 1088,53.7 1088,115.3 973.3,115.3 973.3,165.1 
		1071.8,165.1 1071.8,223 973.3,223 973.3,277.6 	"/>
	<polygon class="st0" points="863.6,339.3 778.7,339.3 711.6,225.1 681.3,259.7 681.3,339.3 601.8,339.3 601.8,53.7 681.3,53.7 
		681.3,158.6 683.4,158.6 761.3,53.7 847.3,53.7 757,170.5 	"/>
	<polygon class="st0" points="266.3,53.7 266.3,118.6 186.8,118.6 186.8,339.3 107.3,339.3 107.3,118.6 27.8,118.6 27.8,53.7 	"/>
	<g>
		<g>
			<path class="st1" d="M496.2,212L496.2,212L496.2,212L496.2,212L496.2,212z M496.2,212L496.2,212L496.2,212L496.2,212L496.2,212z
				 M402.8,88.9c0.2,0.3,0.4,0.6,0.5,0.9C403.2,89.5,403,89.2,402.8,88.9z M396.4,90.9L396.4,90.9L396.4,90.9L396.4,90.9z
				 M396.4,91.1L396.4,91.1L396.4,91.1L396.4,91.1z M315.9,194.4L315.9,194.4L315.9,194.4L315.9,194.4z M315.7,194.4L315.7,194.4
				L315.7,194.4L315.7,194.4z"/>
			<path class="st1" d="M403.6,91.1L403.6,91.1c0,0.2,0,0.3,0,0.5c0,0.1,0,0.3-0.1,0.4l0,0l0,0c0,0.2-0.1,0.4-0.2,0.6
				c-0.2,0.4-0.5,0.8-0.8,1.1c-0.1,0.1-0.1,0.1-0.2,0.2c-0.1,0.1-0.2,0.2-0.3,0.2c-0.1,0.1-0.2,0.1-0.3,0.2
				c-0.2,0.1-0.4,0.2-0.6,0.3c-0.3,0.1-0.7,0.1-1,0.1l0,0c-0.3,0-0.6,0-0.9-0.1c-1.7-0.5-2.7-1.9-2.7-3.5l0,0l0,0V91v-0.1v-0.1
				c0-0.1,0-0.1,0-0.2c0-0.1,0-0.3,0.1-0.4c0.4-1.6,1.9-2.7,3.5-2.7c0.3,0,0.6,0,0.9,0.1l0,0c0,0,0,0,0.1,0l0,0l0,0l0,0h0.1
				c0.1,0,0.1,0.1,0.2,0.1s0.2,0.1,0.3,0.1c0.1,0,0.2,0.1,0.2,0.1c0.2,0.1,0.5,0.3,0.7,0.5c0.1,0.1,0.1,0.2,0.2,0.3
				c0.2,0.3,0.4,0.6,0.5,0.9c0.1,0.2,0.2,0.4,0.2,0.7c0,0.1,0,0.2,0,0.3C403.5,90.9,403.6,91,403.6,91.1z"/>
			<path class="st1" d="M319.3,197.9c0,2.1-1.7,3.6-3.6,3.6c-2.1,0-3.6-1.7-3.6-3.6v-0.1l0,0l0,0l0,0l0,0l0,0l0,0
				c0.1-2,1.7-3.4,3.6-3.4l0,0l0,0h0.1l0,0l0,0h0.1c0.1,0,0.2,0,0.2,0c0.2,0,0.3,0.1,0.4,0.1s0.2,0.1,0.3,0.1c0.1,0,0.1,0,0.2,0.1
				c0.1,0,0.2,0.1,0.3,0.1c0.1,0.1,0.3,0.2,0.4,0.2c0,0,0.1,0,0.1,0.1c0.1,0,0.1,0.1,0.2,0.1s0.1,0.1,0.2,0.2l0.1,0.1
				c0.1,0.1,0.2,0.2,0.2,0.3c0.1,0.1,0.1,0.2,0.2,0.2c0.1,0.1,0.2,0.3,0.2,0.4c0,0.1,0.1,0.2,0.1,0.3c0,0.2,0.1,0.3,0.1,0.4
				s0,0.2,0,0.3l0,0C319.3,197.7,319.3,197.8,319.3,197.9z"/>
			<path class="st1" d="M421,49c-39.4,0-76.5,15.4-104.3,43.2s-43.2,64.9-43.2,104.3c0,81.3,66.2,147.5,147.5,147.5
				c39.4,0,76.5-15.4,104.3-43.2c13.9-13.9,24.7-30.1,32-47.8s11.2-36.8,11.2-56.5C568.5,115.2,502.4,49,421,49z M420.5,326
				c-71.5-0.3-129.3-58.6-129-130.1S350,66.6,421.6,66.9c71.5,0.3,129.3,58.6,129,130.1S492,326.3,420.5,326z"/>
		</g>
		<path class="st2" d="M496.2,212L496.2,212L496.2,212L496.2,212L496.2,212z M496.2,212L496.2,212L496.2,212L496.2,212L496.2,212z
			 M402.8,88.9c0.2,0.3,0.4,0.6,0.5,0.9C403.2,89.5,403,89.2,402.8,88.9z M396.4,90.9L396.4,90.9L396.4,90.9L396.4,90.9z
			 M396.4,91.1L396.4,91.1L396.4,91.1L396.4,91.1z M315.9,194.4L315.9,194.4L315.9,194.4L315.9,194.4z M315.7,194.4L315.7,194.4
			L315.7,194.4L315.7,194.4z"/>
		<g>
			<path class="st1" d="M444.6,132.1c0.2,1.1,0.3,2.3,0.3,3.5c0,13.3-10.7,24-24,24c-11.8,0-21.6-8.5-23.6-19.6l-12,2l-1-6.2
				l12.7-2.1c1-12.4,11.3-22.1,23.9-22.1c9.9,0,18.3,5.9,22,14.4l13.6-2.3l1,6.2L444.6,132.1z"/>
		</g>
		<g>
			<circle class="st1" cx="423.8" cy="204.7" r="9.1"/>
		</g>
		<g>
			<path class="st1" d="M511.2,144.6c0,1.7-1.3,3-2.9,3c-1.7,0-3-1.3-3-3s1.3-2.9,3-2.9C509.9,141.7,511.2,143,511.2,144.6z"/>
		</g>
		<path class="st2" d="M421.6,66.9c-71.5-0.3-129.8,57.5-130.1,129s57.4,129.8,129,130.1c71.5,0.3,129.8-57.4,130.1-129
			S493.2,67.2,421.6,66.9z M315.7,201.5c-2.1,0-3.6-1.7-3.6-3.6v-0.1l0,0l0,0l0,0l0,0l0,0l0,0l0,0c0.1-2,1.7-3.4,3.6-3.4l0,0h0.1
			l0,0l0,0l0,0h0.1c0.1,0,0.2,0,0.2,0c0.2,0,0.3,0.1,0.4,0.1s0.2,0.1,0.3,0.1c0.1,0,0.1,0,0.2,0.1c0.1,0,0.2,0.1,0.3,0.1
			c0.1,0.1,0.3,0.2,0.4,0.2c0,0,0.1,0,0.1,0.1c0.1,0,0.1,0.1,0.2,0.1s0.1,0.1,0.2,0.2l0.1,0.1c0.1,0.1,0.2,0.2,0.2,0.3
			c0.1,0.1,0.1,0.2,0.2,0.2c0.1,0.1,0.2,0.3,0.2,0.4s0.1,0.2,0.1,0.3c0,0.2,0.1,0.3,0.1,0.4c0,0.1,0,0.2,0,0.3l0,0
			c0,0.1,0,0.3,0,0.4C319.3,200,317.6,201.5,315.7,201.5z M492.7,208.3c2.1,0,3.6,1.7,3.6,3.6v0.1l0,0l0,0v0.1l0,0l0,0
			c-0.1,2-1.7,3.4-3.6,3.4c-0.1,0-0.3,0-0.4,0s-0.2,0-0.4-0.1c-0.1,0-0.2-0.1-0.3-0.1h-0.1c-0.1,0-0.1,0-0.2-0.1l0,0h-0.1h-0.1
			c-0.1,0-0.1-0.1-0.2-0.1s-0.1-0.1-0.2-0.1l-0.1-0.1l-0.1-0.1c-0.1-0.1-0.3-0.2-0.4-0.3s-0.1-0.2-0.2-0.3s-0.1-0.2-0.2-0.2
			c0,0,0-0.1-0.1-0.1c0-0.1-0.1-0.1-0.1-0.2l0,0c0-0.1-0.1-0.2-0.1-0.3s0-0.1-0.1-0.2c0-0.1-0.1-0.2-0.1-0.2v-0.1c0,0,0,0,0-0.1
			s0-0.1,0-0.2c0-0.2,0-0.3,0-0.5C489.1,209.7,490.8,208.3,492.7,208.3z M396.4,91.1L396.4,91.1L396.4,91.1L396.4,91.1L396.4,91.1
			L396.4,91.1v-0.2c0-0.1,0-0.1,0-0.2c0-0.1,0-0.3,0.1-0.4c0.4-1.6,1.9-2.7,3.5-2.7c0.3,0,0.6,0,0.9,0.1l0,0h0.1l0,0h0.1
			c0.1,0,0.1,0.1,0.2,0.1s0.2,0.1,0.3,0.1c0.1,0,0.2,0.1,0.2,0.1c0.2,0.1,0.5,0.3,0.7,0.5c0.1,0.1,0.1,0.2,0.2,0.3
			c0.2,0.3,0.4,0.6,0.5,0.9c0.1,0.2,0.2,0.4,0.2,0.7c0,0.1,0,0.2,0,0.3s0,0.2,0,0.3l0,0c0,0.1,0,0.3,0,0.4c0,0.1,0,0.3-0.1,0.4l0,0
			l0,0c0,0.2-0.1,0.4-0.2,0.6c-0.2,0.4-0.5,0.8-0.8,1.1c-0.1,0.1-0.1,0.1-0.2,0.2c-0.1,0.1-0.2,0.2-0.3,0.2
			c-0.1,0.1-0.2,0.1-0.3,0.2c-0.2,0.1-0.4,0.2-0.6,0.3c-0.3,0.1-0.7,0.1-1,0.1l0,0c-0.3,0-0.6,0-0.9-0.1
			C397.4,94.1,396.4,92.7,396.4,91.1L396.4,91.1z M351.3,256.3c-3.4,0-6.1-2.7-6.1-6.1c0-3.4,2.7-6.1,6.1-6.1s6.1,2.7,6.1,6.1
			S354.5,256.3,351.3,256.3z M354.7,165.7c-3.4,0-6.1-2.7-6.1-6.1c0-3.4,2.7-6.1,6.1-6.1s6.1,2.7,6.1,6.1
			C360.8,163,357.8,165.7,354.7,165.7z M405.9,304.1c-1.7,0-3-1.3-3-3c0-1.7,1.3-2.9,3-2.9s3,1.3,3,2.9
			C408.8,302.8,407.4,304.1,405.9,304.1z M414.7,204.7c0-5,4-9.1,9.1-9.1c5,0,9.1,4,9.1,9.1s-4,9.1-9.1,9.1
			C418.7,213.7,414.7,209.7,414.7,204.7z M433.7,268.9c-2.1,0-3.6-1.7-3.6-3.6c0-2.1,1.7-3.6,3.6-3.6c2.1,0,3.6,1.7,3.6,3.6
			C437.3,267.5,435.6,268.9,433.7,268.9z M444.8,135.6c0,13.3-10.7,24-24,24c-11.8,0-21.6-8.5-23.6-19.6l-12,2l-1-6.2l12.7-2.1
			c1-12.4,11.3-22.1,23.9-22.1c9.9,0,18.3,5.9,22,14.4l13.6-2.3l1,6.2l-12.9,2.2C444.8,133.2,444.8,134.4,444.8,135.6z M493.1,279.9
			c-6.7,0-12-5.5-12-12s5.5-12,12-12s12,5.5,12,12C505.1,274.6,499.8,279.9,493.1,279.9z M508.3,147.6c-1.7,0-3-1.3-3-3
			s1.3-2.9,3-2.9s2.9,1.3,2.9,2.9C511.2,146.3,509.9,147.6,508.3,147.6z"/>
		<path class="st3" d="M496.2,212L496.2,212L496.2,212L496.2,212L496.2,212L496.2,212L496.2,212z"/>
		<path class="st3" d="M315.7,194.4L315.7,194.4L315.7,194.4L315.7,194.4z M315.9,194.4L315.9,194.4L315.9,194.4L315.9,194.4z"/>
		<path class="st3" d="M396.4,91.1L396.4,91.1L396.4,91.1L396.4,91.1z M396.4,90.9L396.4,90.9L396.4,90.9L396.4,90.9z"/>
		<path class="st3" d="M396.4,90.9L396.4,90.9C396.4,91,396.4,91,396.4,90.9L396.4,90.9z"/>
		<path class="st3" d="M396.4,91.1L396.4,91.1L396.4,91.1L396.4,91.1z"/>
		<path class="st3" d="M403.3,89.8c-0.1-0.3-0.3-0.6-0.5-0.9C403,89.2,403.2,89.5,403.3,89.8z"/>
		<path class="st1" d="M437.3,265.3c0,2.1-1.7,3.6-3.6,3.6c-2.1,0-3.6-1.7-3.6-3.6c0-2.1,1.7-3.6,3.6-3.6
			C435.8,261.8,437.3,263.4,437.3,265.3z"/>
		<g>
			<path class="st1" d="M408.8,301.2c0,1.7-1.5,3-3,3c-1.7,0-3-1.3-3-3c0-1.7,1.3-2.9,3-2.9C407.6,298.2,408.8,299.5,408.8,301.2z"
				/>
		</g>
		<g>
			<ellipse class="st1" cx="493.1" cy="267.9" rx="12" ry="12"/>
		</g>
		<g>
			<circle class="st1" cx="351.3" cy="250.2" r="6.1"/>
		</g>
		<g>
			<path class="st1" d="M360.8,159.6c0,3.4-3,6.1-6.1,6.1c-3.4,0-6.1-2.7-6.1-6.1c0-3.4,2.7-6.1,6.1-6.1S360.8,156.2,360.8,159.6z"
				/>
		</g>
		<path class="st3" d="M315.7,194.4L315.7,194.4L315.7,194.4L315.7,194.4z"/>
		<path class="st1" d="M496.2,212L496.2,212L496.2,212L496.2,212c-0.1,2.1-1.7,3.4-3.6,3.4c-0.1,0-0.3,0-0.4,0s-0.2,0-0.4-0.1
			c-0.1,0-0.2-0.1-0.3-0.1h-0.1c-0.1,0-0.1,0-0.2-0.1l0,0h-0.1H491c-0.1,0-0.1-0.1-0.2-0.1s-0.1-0.1-0.2-0.1l-0.1-0.1l-0.1-0.1
			c-0.1-0.1-0.3-0.2-0.4-0.3s-0.1-0.2-0.2-0.3s-0.1-0.2-0.2-0.2c0,0,0-0.1-0.1-0.1c0-0.1-0.1-0.1-0.1-0.2l0,0c0-0.1-0.1-0.2-0.1-0.3
			s0-0.1-0.1-0.2c0-0.1-0.1-0.2-0.1-0.2v-0.1c0,0,0,0,0-0.1s0-0.1,0-0.2c0-0.2,0-0.3,0-0.5c0-2.1,1.7-3.6,3.6-3.6
			C494.8,208.4,496.3,210.1,496.2,212C496.2,211.9,496.2,211.9,496.2,212L496.2,212L496.2,212L496.2,212z"/>
	</g>
</g>
<text transform="matrix(1 0 0 1 174.11 685.295)" class="st0 st4 st5">TA</text>
<text transform="matrix(1 0 0 1 677.3099 685.295)" class="st0 st4 st5 st6">LK</text>
</svg>
