<?xml version="1.0" encoding="utf-8"?>
<!-- Generator: Adobe Illustrator 26.1.0, SVG Export Plug-In . SVG Version: 6.00 Build 0)  -->
<svg version="1.1" id="Layer_1" xmlns="http://www.w3.org/2000/svg" xmlns:xlink="http://www.w3.org/1999/xlink" x="0px" y="0px"
	 viewBox="0 0 2402.8 347.1" style="enable-background:new 0 0 2402.8 347.1;" xml:space="preserve">
<style type="text/css">
	.st0{fill:#F0F0F0;}
	.st1{fill:#DEDEDE;}
	.st2{fill:#192432;}
	.st3{fill:#FFFFFF;}
	.st4{font-family:'SourceSansPro-Black';}
	.st5{font-size:447px;}
	.st6{letter-spacing:-10;}
</style>
<polygon class="st0" points="1330.2,251.7 1330.2,316.6 1137.1,316.6 1137.1,31 1216.6,31 1216.6,251.7 "/>
<polygon class="st0" points="1088.7,254.9 1088.7,316.6 889.1,316.6 889.1,31 1083.3,31 1083.3,92.6 968.6,92.6 968.6,142.4 
	1067.1,142.4 1067.1,200.3 968.6,200.3 968.6,254.9 "/>
<polygon class="st0" points="858.9,316.6 774,316.6 706.9,202.4 676.6,237 676.6,316.6 597.1,316.6 597.1,31 676.6,31 676.6,135.9 
	678.7,135.9 756.6,31 842.6,31 752.3,147.8 "/>
<polygon class="st0" points="261.6,31 261.6,95.9 182.1,95.9 182.1,316.6 102.6,316.6 102.6,95.9 23.1,95.9 23.1,31 "/>
<g>
	<g>
		<path class="st1" d="M491.5,189.3L491.5,189.3L491.5,189.3L491.5,189.3L491.5,189.3z M491.5,189.3L491.5,189.3L491.5,189.3
			L491.5,189.3L491.5,189.3z M398.1,66.2c0.2,0.3,0.4,0.6,0.5,0.9C398.5,66.8,398.3,66.5,398.1,66.2z M391.7,68.2L391.7,68.2
			L391.7,68.2L391.7,68.2z M391.7,68.4L391.7,68.4L391.7,68.4L391.7,68.4z M311.2,171.7L311.2,171.7L311.2,171.7L311.2,171.7z
			 M311,171.7L311,171.7L311,171.7L311,171.7z"/>
		<path class="st1" d="M398.9,68.4L398.9,68.4c0,0.2,0,0.3,0,0.5c0,0.1,0,0.3-0.1,0.4l0,0l0,0c0,0.2-0.1,0.4-0.2,0.6
			c-0.2,0.4-0.5,0.8-0.8,1.1c-0.1,0.1-0.1,0.1-0.2,0.2c-0.1,0.1-0.2,0.2-0.3,0.2c-0.1,0.1-0.2,0.1-0.3,0.2c-0.2,0.1-0.4,0.2-0.6,0.3
			c-0.3,0.1-0.7,0.1-1,0.1l0,0c-0.3,0-0.6,0-0.9-0.1c-1.7-0.5-2.7-1.9-2.7-3.5l0,0l0,0v-0.1v-0.1v-0.1c0-0.1,0-0.1,0-0.2
			c0-0.1,0-0.3,0.1-0.4c0.4-1.6,1.9-2.7,3.5-2.7c0.3,0,0.6,0,0.9,0.1l0,0c0,0,0,0,0.1,0l0,0l0,0l0,0h0.1c0.1,0,0.1,0.1,0.2,0.1
			s0.2,0.1,0.3,0.1c0.1,0,0.2,0.1,0.2,0.1c0.2,0.1,0.5,0.3,0.7,0.5c0.1,0.1,0.1,0.2,0.2,0.3c0.2,0.3,0.4,0.6,0.5,0.9
			c0.1,0.2,0.2,0.4,0.2,0.7c0,0.1,0,0.2,0,0.3C398.8,68.2,398.9,68.3,398.9,68.4z"/>
		<path class="st1" d="M314.6,175.2c0,2.1-1.7,3.6-3.6,3.6c-2.1,0-3.6-1.7-3.6-3.6v-0.1l0,0l0,0l0,0l0,0l0,0l0,0
			c0.1-2,1.7-3.4,3.6-3.4l0,0l0,0h0.1l0,0l0,0h0.1c0.1,0,0.2,0,0.2,0c0.2,0,0.3,0.1,0.4,0.1s0.2,0.1,0.3,0.1c0.1,0,0.1,0,0.2,0.1
			c0.1,0,0.2,0.1,0.3,0.1c0.1,0.1,0.3,0.2,0.4,0.2c0,0,0.1,0,0.1,0.1c0.1,0,0.1,0.1,0.2,0.1s0.1,0.1,0.2,0.2l0.1,0.1
			c0.1,0.1,0.2,0.2,0.2,0.3c0.1,0.1,0.1,0.2,0.2,0.2c0.1,0.1,0.2,0.3,0.2,0.4c0,0.1,0.1,0.2,0.1,0.3c0,0.2,0.1,0.3,0.1,0.4
			s0,0.2,0,0.3l0,0C314.6,175,314.6,175.1,314.6,175.2z"/>
		<path class="st1" d="M416.3,26.3c-39.4,0-76.5,15.4-104.3,43.2s-43.2,64.9-43.2,104.3c0,81.3,66.2,147.5,147.5,147.5
			c39.4,0,76.5-15.4,104.3-43.2c13.9-13.9,24.7-30.1,32-47.8s11.2-36.8,11.2-56.5C563.8,92.5,497.7,26.3,416.3,26.3z M415.8,303.3
			c-71.5-0.3-129.3-58.6-129-130.1s58.5-129.3,130.1-129c71.5,0.3,129.3,58.6,129,130.1S487.3,303.6,415.8,303.3z"/>
	</g>
	<path class="st2" d="M491.5,189.3L491.5,189.3L491.5,189.3L491.5,189.3L491.5,189.3z M491.5,189.3L491.5,189.3L491.5,189.3
		L491.5,189.3L491.5,189.3z M398.1,66.2c0.2,0.3,0.4,0.6,0.5,0.9C398.5,66.8,398.3,66.5,398.1,66.2z M391.7,68.2L391.7,68.2
		L391.7,68.2L391.7,68.2z M391.7,68.4L391.7,68.4L391.7,68.4L391.7,68.4z M311.2,171.7L311.2,171.7L311.2,171.7L311.2,171.7z
		 M311,171.7L311,171.7L311,171.7L311,171.7z"/>
	<g>
		<path class="st1" d="M439.9,109.4c0.2,1.1,0.3,2.3,0.3,3.5c0,13.3-10.7,24-24,24c-11.8,0-21.6-8.5-23.6-19.6l-12,2l-1-6.2
			l12.7-2.1c1-12.4,11.3-22.1,23.9-22.1c9.9,0,18.3,5.9,22,14.4l13.6-2.3l1,6.2L439.9,109.4z"/>
	</g>
	<g>
		<circle class="st1" cx="419.1" cy="182" r="9.1"/>
	</g>
	<g>
		<path class="st1" d="M506.5,121.9c0,1.7-1.3,3-2.9,3c-1.7,0-3-1.3-3-3s1.3-2.9,3-2.9C505.2,119,506.5,120.3,506.5,121.9z"/>
	</g>
	<path class="st2" d="M416.9,44.2c-71.5-0.3-129.8,57.5-130.1,129s57.4,129.8,129,130.1c71.5,0.3,129.8-57.4,130.1-129
		S488.5,44.5,416.9,44.2z M311,178.8c-2.1,0-3.6-1.7-3.6-3.6v-0.1l0,0l0,0l0,0l0,0l0,0l0,0l0,0c0.1-2,1.7-3.4,3.6-3.4l0,0h0.1l0,0
		l0,0l0,0h0.1c0.1,0,0.2,0,0.2,0c0.2,0,0.3,0.1,0.4,0.1s0.2,0.1,0.3,0.1c0.1,0,0.1,0,0.2,0.1c0.1,0,0.2,0.1,0.3,0.1
		c0.1,0.1,0.3,0.2,0.4,0.2c0,0,0.1,0,0.1,0.1c0.1,0,0.1,0.1,0.2,0.1s0.1,0.1,0.2,0.2l0.1,0.1c0.1,0.1,0.2,0.2,0.2,0.3
		c0.1,0.1,0.1,0.2,0.2,0.2c0.1,0.1,0.2,0.3,0.2,0.4s0.1,0.2,0.1,0.3c0,0.2,0.1,0.3,0.1,0.4c0,0.1,0,0.2,0,0.3l0,0c0,0.1,0,0.3,0,0.4
		C314.6,177.3,312.9,178.8,311,178.8z M488,185.6c2.1,0,3.6,1.7,3.6,3.6v0.1l0,0l0,0v0.1l0,0l0,0c-0.1,2-1.7,3.4-3.6,3.4
		c-0.1,0-0.3,0-0.4,0s-0.2,0-0.4-0.1c-0.1,0-0.2-0.1-0.3-0.1h-0.1c-0.1,0-0.1,0-0.2-0.1l0,0h-0.1h-0.1c-0.1,0-0.1-0.1-0.2-0.1
		s-0.1-0.1-0.2-0.1l-0.1-0.1l-0.1-0.1c-0.1-0.1-0.3-0.2-0.4-0.3s-0.1-0.2-0.2-0.3s-0.1-0.2-0.2-0.2c0,0,0-0.1-0.1-0.1
		c0-0.1-0.1-0.1-0.1-0.2l0,0c0-0.1-0.1-0.2-0.1-0.3s0-0.1-0.1-0.2c0-0.1-0.1-0.2-0.1-0.2v-0.1c0,0,0,0,0-0.1s0-0.1,0-0.2
		c0-0.2,0-0.3,0-0.5C484.4,187,486.1,185.6,488,185.6z M391.7,68.4L391.7,68.4L391.7,68.4L391.7,68.4L391.7,68.4L391.7,68.4v-0.2
		c0-0.1,0-0.1,0-0.2c0-0.1,0-0.3,0.1-0.4c0.4-1.6,1.9-2.7,3.5-2.7c0.3,0,0.6,0,0.9,0.1l0,0h0.1l0,0h0.1c0.1,0,0.1,0.1,0.2,0.1
		s0.2,0.1,0.3,0.1c0.1,0,0.2,0.1,0.2,0.1c0.2,0.1,0.5,0.3,0.7,0.5c0.1,0.1,0.1,0.2,0.2,0.3c0.2,0.3,0.4,0.6,0.5,0.9
		c0.1,0.2,0.2,0.4,0.2,0.7c0,0.1,0,0.2,0,0.3s0,0.2,0,0.3l0,0c0,0.1,0,0.3,0,0.4c0,0.1,0,0.3-0.1,0.4l0,0l0,0c0,0.2-0.1,0.4-0.2,0.6
		c-0.2,0.4-0.5,0.8-0.8,1.1c-0.1,0.1-0.1,0.1-0.2,0.2c-0.1,0.1-0.2,0.2-0.3,0.2c-0.1,0.1-0.2,0.1-0.3,0.2c-0.2,0.1-0.4,0.2-0.6,0.3
		c-0.3,0.1-0.7,0.1-1,0.1l0,0c-0.3,0-0.6,0-0.9-0.1C392.7,71.4,391.7,70,391.7,68.4L391.7,68.4z M346.6,233.6
		c-3.4,0-6.1-2.7-6.1-6.1c0-3.4,2.7-6.1,6.1-6.1s6.1,2.7,6.1,6.1S349.8,233.6,346.6,233.6z M350,143c-3.4,0-6.1-2.7-6.1-6.1
		c0-3.4,2.7-6.1,6.1-6.1s6.1,2.7,6.1,6.1C356.1,140.3,353.1,143,350,143z M401.2,281.4c-1.7,0-3-1.3-3-3c0-1.7,1.3-2.9,3-2.9
		s3,1.3,3,2.9C404.1,280.1,402.7,281.4,401.2,281.4z M410,182c0-5,4-9.1,9.1-9.1c5,0,9.1,4,9.1,9.1s-4,9.1-9.1,9.1
		C414,191,410,187,410,182z M429,246.2c-2.1,0-3.6-1.7-3.6-3.6c0-2.1,1.7-3.6,3.6-3.6c2.1,0,3.6,1.7,3.6,3.6
		C432.6,244.8,430.9,246.2,429,246.2z M440.1,112.9c0,13.3-10.7,24-24,24c-11.8,0-21.6-8.5-23.6-19.6l-12,2l-1-6.2l12.7-2.1
		c1-12.4,11.3-22.1,23.9-22.1c9.9,0,18.3,5.9,22,14.4l13.6-2.3l1,6.2l-12.9,2.2C440.1,110.5,440.1,111.7,440.1,112.9z M488.4,257.2
		c-6.7,0-12-5.5-12-12s5.5-12,12-12s12,5.5,12,12C500.4,251.9,495.1,257.2,488.4,257.2z M503.6,124.9c-1.7,0-3-1.3-3-3
		s1.3-2.9,3-2.9s2.9,1.3,2.9,2.9C506.5,123.6,505.2,124.9,503.6,124.9z"/>
	<path class="st3" d="M491.5,189.3L491.5,189.3L491.5,189.3L491.5,189.3L491.5,189.3L491.5,189.3L491.5,189.3z"/>
	<path class="st3" d="M311,171.7L311,171.7L311,171.7L311,171.7z M311.2,171.7L311.2,171.7L311.2,171.7L311.2,171.7z"/>
	<path class="st3" d="M391.7,68.4L391.7,68.4L391.7,68.4L391.7,68.4z M391.7,68.2L391.7,68.2L391.7,68.2L391.7,68.2z"/>
	<path class="st3" d="M391.7,68.2L391.7,68.2C391.7,68.3,391.7,68.3,391.7,68.2L391.7,68.2z"/>
	<path class="st3" d="M391.7,68.4L391.7,68.4L391.7,68.4L391.7,68.4z"/>
	<path class="st3" d="M398.6,67.1c-0.1-0.3-0.3-0.6-0.5-0.9C398.3,66.5,398.5,66.8,398.6,67.1z"/>
	<path class="st1" d="M432.6,242.6c0,2.1-1.7,3.6-3.6,3.6c-2.1,0-3.6-1.7-3.6-3.6c0-2.1,1.7-3.6,3.6-3.6
		C431.1,239.1,432.6,240.7,432.6,242.6z"/>
	<g>
		<path class="st1" d="M404.1,278.5c0,1.7-1.5,3-3,3c-1.7,0-3-1.3-3-3c0-1.7,1.3-2.9,3-2.9C402.9,275.5,404.1,276.8,404.1,278.5z"/>
	</g>
	<g>
		<ellipse class="st1" cx="488.4" cy="245.2" rx="12" ry="12"/>
	</g>
	<g>
		<circle class="st1" cx="346.6" cy="227.5" r="6.1"/>
	</g>
	<g>
		<path class="st1" d="M356.1,136.9c0,3.4-3,6.1-6.1,6.1c-3.4,0-6.1-2.7-6.1-6.1c0-3.4,2.7-6.1,6.1-6.1S356.1,133.5,356.1,136.9z"/>
	</g>
	<path class="st3" d="M311,171.7L311,171.7L311,171.7L311,171.7z"/>
	<path class="st1" d="M491.5,189.3L491.5,189.3L491.5,189.3L491.5,189.3c-0.1,2.1-1.7,3.4-3.6,3.4c-0.1,0-0.3,0-0.4,0
		s-0.2,0-0.4-0.1c-0.1,0-0.2-0.1-0.3-0.1h-0.1c-0.1,0-0.1,0-0.2-0.1l0,0h-0.1h-0.1c-0.1,0-0.1-0.1-0.2-0.1s-0.1-0.1-0.2-0.1
		l-0.1-0.1l-0.1-0.1c-0.1-0.1-0.3-0.2-0.4-0.3s-0.1-0.2-0.2-0.3s-0.1-0.2-0.2-0.2c0,0,0-0.1-0.1-0.1c0-0.1-0.1-0.1-0.1-0.2l0,0
		c0-0.1-0.1-0.2-0.1-0.3s0-0.1-0.1-0.2c0-0.1-0.1-0.2-0.1-0.2v-0.1c0,0,0,0,0-0.1s0-0.1,0-0.2c0-0.2,0-0.3,0-0.5
		c0-2.1,1.7-3.6,3.6-3.6C490.1,185.7,491.6,187.4,491.5,189.3C491.5,189.2,491.5,189.2,491.5,189.3L491.5,189.3L491.5,189.3
		L491.5,189.3z"/>
</g>
<text transform="matrix(1 0 0 1 1377.7798 316.6131)" class="st0 st4 st5">TA</text>
<text transform="matrix(1 0 0 1 1880.9796 316.6131)" class="st0 st4 st5 st6">LK</text>
</svg>
